<svg width="512" height="512" viewBox="0 0 512 512" fill="none" xmlns="http://www.w3.org/2000/svg">
<rect width="512" height="512" rx="256" fill="black"/>
<g clip-path="url(#clip0_166_22)">
<path d="M196.865 377.369H189.748C186.254 377.369 183.421 380.214 183.421 383.722V405.23C183.421 408.739 186.254 411.583 189.748 411.583H196.865C200.359 411.583 203.192 408.739 203.192 405.23V383.722C203.192 380.214 200.359 377.369 196.865 377.369Z" fill="white"/>
<path d="M226.851 356.557H219.7C216.206 356.557 213.373 359.401 213.373 362.91V405.131C213.373 408.64 216.206 411.485 219.7 411.485H226.851C230.345 411.485 233.177 408.64 233.177 405.131V362.91C233.177 359.401 230.345 356.557 226.851 356.557Z" fill="white"/>
<path d="M286.92 336.306H279.769C276.275 336.306 273.443 339.15 273.443 342.659V404.933C273.443 408.441 276.275 411.286 279.769 411.286H286.92C290.414 411.286 293.246 408.441 293.246 404.933V342.659C293.246 339.15 290.414 336.306 286.92 336.306Z" fill="white"/>
<path d="M286.887 346.861H279.769C276.275 346.861 273.443 349.706 273.443 353.214V404.866C273.443 408.375 276.275 411.22 279.769 411.22H286.887C290.381 411.22 293.213 408.375 293.213 404.866V353.214C293.213 349.706 290.381 346.861 286.887 346.861Z" fill="white"/>
<path d="M256.869 314.897H249.751C246.257 314.897 243.424 317.742 243.424 321.251V404.834C243.424 408.342 246.257 411.187 249.751 411.187H256.869C260.363 411.187 263.195 408.342 263.195 404.834V321.251C263.195 317.742 260.363 314.897 256.869 314.897Z" fill="white"/>
<path d="M316.905 376.046H309.787C306.293 376.046 303.461 378.89 303.461 382.399V405.131C303.461 408.64 306.293 411.484 309.787 411.484H316.905C320.399 411.484 323.232 408.64 323.232 405.131V382.399C323.232 378.89 320.399 376.046 316.905 376.046Z" fill="white"/>
<path d="M331.469 142.636L281.549 214.141L271.268 228.866L266.918 235.12C265.6 236.973 264.612 239.024 263.92 241.175C263.261 243.326 262.899 245.576 262.899 247.859V266.554C262.899 268.639 261.877 270.591 260.164 271.782C260.131 271.782 260.065 271.849 260.032 271.882C255.847 274.76 250.147 271.749 250.147 266.654V248.19C250.147 243.657 248.73 239.19 246.127 235.484L245.896 235.12L240.953 228.039L230.673 213.314L200.358 169.901L190.111 155.177L188.891 153.423C185.959 149.187 188.957 143.43 194.097 143.43C208.398 143.463 227.938 145.746 251.728 153.82C285.602 165.335 314.829 153.026 331.469 142.636Z" fill="white"/>
<path d="M387.946 428.989V439.677C387.946 443.184 385.113 446.03 381.62 446.03H131.557C128.064 446.03 125.23 443.184 125.23 439.677V435.342C125.23 425.978 132.776 418.4 142.101 418.4H377.336C383.169 418.4 387.914 423.165 387.914 429.022" fill="white"/>
<path d="M125.263 71.7584V76.0931C125.263 85.4573 132.842 93.0678 142.167 93.0678H371.076C380.401 93.0678 387.979 85.4573 387.979 76.0931V71.7584C387.979 68.251 385.146 65.4053 381.653 65.4053H131.59C128.097 65.4053 125.263 68.251 125.263 71.7584Z" fill="white"/>
<path d="M369.659 374.888L369.56 374.755L291.863 262.484C289.029 258.414 289.029 252.954 291.863 248.917L369.461 136.812L369.659 136.481C373.185 130.723 375.03 124.006 375.03 117.091V104.947C375.03 101.439 372.196 98.5938 368.703 98.5938C365.211 98.5938 362.377 101.439 362.377 104.947V117.091C362.377 121.591 361.191 125.958 358.95 129.697L281.45 241.638C275.651 250.043 275.651 261.326 281.45 269.73L358.95 381.671C361.191 385.443 362.377 389.778 362.377 394.311V406.388C362.377 409.896 365.211 412.741 368.703 412.741C372.196 412.741 375.03 409.896 375.03 406.388V394.311C375.03 387.395 373.185 380.678 369.659 374.888Z" fill="white"/>
<path d="M144.309 374.888L144.408 374.755L222.105 262.484C224.939 258.414 224.939 252.954 222.105 248.917L144.506 136.812L144.309 136.481C140.783 130.723 138.938 124.006 138.938 117.091V104.947C138.938 101.439 141.772 98.5938 145.264 98.5938C148.757 98.5938 151.591 101.439 151.591 104.947V117.091C151.591 121.591 152.777 125.958 155.018 129.697L232.518 241.638C238.317 250.043 238.317 261.326 232.518 269.73L155.018 381.671C152.777 385.443 151.591 389.778 151.591 394.311V406.388C151.591 409.896 148.757 412.741 145.264 412.741C141.772 412.741 138.938 409.896 138.938 406.388V394.311C138.938 387.395 140.783 380.678 144.309 374.888Z" fill="white"/>
</g>
<defs>
<clipPath id="clip0_166_22">
<rect width="263" height="382" fill="white" transform="translate(125 65)"/>
</clipPath>
</defs>
</svg>
